<svg id="Layer_1" data-name="Layer 1" xmlns="http://www.w3.org/2000/svg" viewBox="0 0 218.28 190.89"><title>On_point_visual</title><path d="M106,36.53c-37.83,0-68.49,26.56-68.49,59.33,0,14.1,5.69,27,15.17,37.22a43.58,43.58,0,0,1-13.19,19.36c14,2.2,24.91-.69,32.93-4.87A76.42,76.42,0,0,0,106,155.2c37.82,0,68.48-26.57,68.48-59.34S143.79,36.53,106,36.53Z" style="fill:#fff"/><path d="M106,158.2a80.09,80.09,0,0,1-33.54-7.29c-10.07,4.89-21.3,6.4-33.43,4.49a3,3,0,0,1-1.45-5.27A39.87,39.87,0,0,0,49.2,133.74,57.52,57.52,0,0,1,34.48,95.86c0-34.37,32.07-62.33,71.49-62.33s71.48,28,71.48,62.33S145.38,158.2,106,158.2ZM72.39,144.57a3.07,3.07,0,0,1,1.32.3A73.85,73.85,0,0,0,106,152.2c36.11,0,65.48-25.28,65.48-56.34S142.08,39.53,106,39.53,40.48,64.8,40.48,95.86c0,12.93,5,25.09,14.36,35.18a3,3,0,0,1,.64,3,47.56,47.56,0,0,1-9.31,16A47.73,47.73,0,0,0,71,144.91,3,3,0,0,1,72.39,144.57Z" style="fill:#00a79d"/><path d="M80.09,110.44c0,1.24-1.07,1.44-2,1L55.29,100.83A2.81,2.81,0,0,1,53.79,98a2.78,2.78,0,0,1,1.5-2.78L78.1,84.62c.92-.41,2-.2,2,1v4.84c0,.82-.64,1.18-1.45,1.54l-14.2,6,14.2,6c.81.37,1.45.72,1.45,1.6Z" style="fill:#00a79d"/><path d="M131.86,105.61c0-.88.64-1.23,1.45-1.6l14.26-6-14.26-6c-.81-.36-1.45-.72-1.45-1.54V85.65c0-1.23,1.13-1.44,2-1l22.86,10.6a3.39,3.39,0,0,1-.05,5.61l-22.81,10.59c-.86.46-2,.26-2-1Z" style="fill:#00a79d"/><polygon points="88.15 97.88 107.1 97.88 98.86 123.98 122.48 90.47 103.38 90.47 109.57 65.75 88.15 97.88" style="fill:#f26522"/><path d="M98.86,127a2.89,2.89,0,0,1-1.33-.32A3,3,0,0,1,96,123.07l7-22.19H88.15a3,3,0,0,1-2.5-4.66l21.43-32.14a3,3,0,0,1,5.4,2.4l-5.26,21h15.26a3,3,0,0,1,2.45,4.73l-23.62,33.51A3,3,0,0,1,98.86,127Zm-5.11-32.1H107.1A3,3,0,0,1,110,98.79l-2.42,7.67,9.16-13H103.38a3,3,0,0,1-2.91-3.73l2-7.9Z" style="fill:#f26522"/></svg>